<?xml version="1.0" encoding="utf-8"?>
<!-- Generator: Adobe Illustrator 22.1.0, SVG Export Plug-In . SVG Version: 6.00 Build 0)  -->
<svg version="1.1" id="Laag_1" xmlns="http://www.w3.org/2000/svg" xmlns:xlink="http://www.w3.org/1999/xlink" x="0px" y="0px"
	 viewBox="0 0 192 192" style="enable-background:new 0 0 192 192;" xml:space="preserve">
<style type="text/css">
	.st0{opacity:0.25;clip-path:url(#SVGID_2_);}
	.st1{clip-path:url(#SVGID_2_);fill:#29ABE2;}
	.st2{clip-path:url(#SVGID_2_);fill:url(#SVGID_3_);}
	.st3{opacity:0.35;clip-path:url(#SVGID_2_);}
	.st4{clip-path:url(#SVGID_2_);fill:#CCCCCC;}
</style>
<g>
	<defs>
		<rect id="SVGID_1_" width="192" height="192"/>
	</defs>
	<clipPath id="SVGID_2_">
		<use xlink:href="#SVGID_1_"  style="overflow:visible;"/>
	</clipPath>
	<circle class="st0" cx="100" cy="63.5" r="128.5"/>
	<circle class="st1" cx="96" cy="59.5" r="128.5"/>
	<circle class="st1" cx="96" cy="59.5" r="102"/>
	<linearGradient id="SVGID_3_" gradientUnits="userSpaceOnUse" x1="96" y1="106.8618" x2="96" y2="161.5">
		<stop  offset="0" style="stop-color:#000000;stop-opacity:0.15"/>
		<stop  offset="1" style="stop-color:#000000;stop-opacity:0.35"/>
	</linearGradient>
	<path class="st2" d="M96,144c-35.2,0-67.1-14.2-90.4-37.1c17.1,32.5,51.1,54.6,90.4,54.6s73.3-22.2,90.4-54.6
		C163.1,129.8,131.2,144,96,144z"/>
	<path class="st3" d="M111.1-64c-2.8-2-7.7-0.2-9.5,2.3C91.1-46.5,84.1-2.5,87.6,28c1.2,10.5,11.8,21.7,11.3,27.5
		c-0.9,10.7-6.1,52.3-5,59c0.5,2.8,1.7,6.5,9.5,6.6c2.5,0,8.4-1.1,9.4-5.1c1.5-6.2-7.6-54.7-4.1-81.2C110.3,23.3,114-61.8,111.1-64
		L111.1-64z"/>
	<path class="st3" d="M121,58c0,0.4,0,0.9,0,1.3c14.5,0.8,27.8,2,42.4,2.7c6,0,5.5,7.4-0.1,7.4c-14.8,0.4-27.5,0.9-42.3,1.3
		c0,0.9,0,1.9,0,2.9c17.4,1.7,35.5,4.6,48.4,2.8c12.9-1.7,10.8-10,24.2-12.5c20.3-3.8,46.2-1.6,55.6,0c6.9,1.2,45.8,7.2,51.6,5.5
		c4.4-1.3,6.1-6.5,6.1-11.3c0-4.9-1.5-10.1-6.1-11.4c-5.8-1.6-44.8,4.3-51.6,5.5c-9.4,1.6-35.2,3.8-55.6,0
		c-13.4-2.5-11.3-10.8-24.2-12.5c-12.9-1.7-31,1.1-48.4,2.8c0,0.9,0,1.9,0,2.9c14.8,0.4,27.5,0.9,42.3,1.3c5.6,0,6.1,7.4,0.1,7.4
		c-14.5,0.8-27.8,2-42.4,2.7C121,57.1,121,57.6,121,58"/>
	<path class="st3" d="M37.5,34.9c-13,0.8-10.8,15.7-24.2,18.1c-20.3,3.8-46.2,1.6-55.6,0c-6.9-1.2-45.8-7.2-51.6-5.5
		c-4.4,1.3-6.1,6.5-6.1,11.3c0,4.9,1.5,10.1,6.1,11.4c5.8,1.6,44.8-4.3,51.6-5.5c9.4-1.6,35.2-3.8,55.6,0
		c13.4,2.5,11.2,16.9,24.2,18.1c31.6,3.1,48.5-13,48.5-24.1C86.1,49,73.4,32.7,37.5,34.9L37.5,34.9z"/>
	<path class="st4" d="M107.2-67c-2.7-2-7.7-0.2-9.5,2.3c-10.5,15-17.4,58.8-13.9,89.1C85,34.9,95.6,46,95.1,51.8
		c-0.9,10.6-6.1,52-4.9,58.7c0.5,2.8,1.7,6.5,9.5,6.5c2.5,0,8.4-1.1,9.3-5.1c1.5-6.2-7.6-54.4-4.1-80.8
		C106.3,19.8,110.1-64.8,107.2-67L107.2-67z"/>
	<path class="st4" d="M117,54c0,0.4,0,0.9,0,1.3c14.5,0.8,27.8,2,42.4,2.7c6,0,5.5,7.4-0.1,7.4c-14.8,0.4-27.5,0.9-42.3,1.3
		c0,0.9,0,1.9,0,2.9c17.4,1.7,35.5,4.6,48.4,2.8c12.9-1.7,10.8-10,24.2-12.5c20.3-3.8,46.2-1.6,55.6,0c6.9,1.2,45.8,7.2,51.6,5.5
		c4.4-1.3,6.1-6.5,6.1-11.3c0-4.9-1.5-10.1-6.1-11.4c-5.8-1.6-44.8,4.3-51.6,5.5c-9.4,1.6-35.2,3.8-55.6,0
		c-13.4-2.5-11.3-10.8-24.2-12.5c-12.9-1.7-31,1.1-48.4,2.8c0,0.9,0,1.9,0,2.9c14.8,0.4,27.5,0.9,42.3,1.3c5.6,0,6.1,7.4,0.1,7.4
		c-14.5,0.8-27.8,2-42.4,2.7C117,53.1,117,53.6,117,54"/>
	<path class="st4" d="M33.5,30.9C20.5,31.6,22.8,46.5,9.4,49c-20.3,3.8-46.2,1.6-55.6,0c-6.9-1.2-45.8-7.2-51.6-5.5
		c-4.4,1.3-6.1,6.5-6.1,11.3c0,4.9,1.5,10.1,6.1,11.4c5.8,1.6,44.8-4.3,51.6-5.5c9.4-1.6,35.2-3.8,55.6,0
		c13.4,2.5,11.2,16.9,24.2,18.1c31.6,3.1,48.5-13,48.5-24.1C82.1,45,69.4,28.7,33.5,30.9L33.5,30.9z"/>
</g>
</svg>
